# xmcd
#
# Track frame offsets:
#  150
#  15788
#  29790
#  44504
#  61122
#  76101
#  85328
#  104740
#  120821
#  138739
#  161459
#  183430
#  210016
#
# Disc length: 3544 seconds
#
# Revision: 0
# Processed by: cddbd v1.5.1PL2 Copyright (c) Steve Scherf et al.
# Submitted via: Collectorz.com_Music_Collector 6.11
#
DISCID=9c0dd60d
DTITLE=Jackson Mackay - Highway to Country
DYEAR=2006
DGENRE=
TTITLE0=Why Do You Do Me This Way?,
TTITLE1=The Yellow Groove,
TTITLE2=Good And Country,
TTITLE3=Too Much Honky Tonking,
TTITLE4=Suzie,
TTITLE5=Turn Me Loose And Let Me Swing,
TTITLE6=Rock My Girl,
TTITLE7=I Feel So Good,
TTITLE8=Honky Tonk Boy,
TTITLE9=The Sun Goes Down,
TTITLE10=A Glance To The Sky,
TTITLE11=ON TOUR, (Video Clip)
TTITLE12=Data track
EXTD=
EXTT0=
EXTT1=
EXTT2=
EXTT3=
EXTT4=
EXTT5=
EXTT6=
EXTT7=
EXTT8=
EXTT9=
EXTT10=
EXTT11=
EXTT12=
PLAYORDER=
